<svg width="20px" height="28px" viewBox="0 0 20 28" version="1.1" 
    xmlns="http://www.w3.org/2000/svg" 
    xmlns:xlink="http://www.w3.org/1999/xlink">
    <defs>
        <path d="M19.7,7.3 L12.7,0.3 C12.5217438,0.102475457 12.2659703,-0.0071417532 12,-4.33003243e-15 L2,-4.33003243e-15 C0.8954305,-4.10798782e-15 0,0.8954305 0,2 L0,26 C0,27.1045695 0.8954305,28 2,28 L18,28 C19.1045695,28 20,27.1045695 20,26 L20,8 C20.0071418,7.73402968 19.8975245,7.47825619 19.7,7.3 L19.7,7.3 Z M12,2.4 L17.6,8 L12,8 L12,2.4 Z M18,26 L2,26 L2,2 L10,2 L10,8 C10,9.1045695 10.8954305,10 12,10 L18,10 L18,26 Z M5,20 L15,20 L15,22 L5,22 L5,20 Z M5,14 L15,14 L15,16 L5,16 L5,14 Z" id="path-1"></path>
    </defs>
    <g id="IDR" stroke="none" stroke-width="1" fill="none" fill-rule="evenodd">
        <g id="8" transform="translate(-355.000000, -1452.000000)">
            <rect fill="#F3F3F3" x="0" y="0" width="1312" height="3408"></rect>
            <g id="Group-2" transform="translate(333.000000, 1338.000000)">
                <g id="icon/file/document/32" transform="translate(16.000000, 112.000000)">
                    <g id="document" stroke-width="1" fill-rule="evenodd" transform="translate(6.000000, 2.000000)">
                        <mask id="mask-2" fill="white">
                            <use xlink:href="#path-1"></use>
                        </mask>
                        <use id="icon-color" fill="#000000" xlink:href="#path-1"></use>
                    </g>
                    <rect id="transparent-rectangle" x="0" y="0" width="32" height="32"></rect>
                </g>
            </g>
        </g>
    </g>
</svg>